<?xml version="1.0" encoding="UTF-8" standalone="no"?>
<svg
   xmlns:dc="http://purl.org/dc/elements/1.1/"
   xmlns:cc="http://creativecommons.org/ns#"
   xmlns:rdf="http://www.w3.org/1999/02/22-rdf-syntax-ns#"
   xmlns:svg="http://www.w3.org/2000/svg"
   xmlns="http://www.w3.org/2000/svg"
   xmlns:sodipodi="http://sodipodi.sourceforge.net/DTD/sodipodi-0.dtd"
   xmlns:inkscape="http://www.inkscape.org/namespaces/inkscape"
   width="64"
   height="64"
   viewBox="0 0 16.933333 16.933333"
   version="1.1"
   id="svg8"
   inkscape:version="1.0.1 (3bc2e813f5, 2020-09-07)"
   sodipodi:docname="whole_note.svg">
  <defs
     id="defs2" />
  <sodipodi:namedview
     id="base"
     pagecolor="#ffffff"
     bordercolor="#666666"
     borderopacity="1.0"
     inkscape:pageopacity="0.0"
     inkscape:pageshadow="2"
     inkscape:zoom="7.9195959"
     inkscape:cx="23.250148"
     inkscape:cy="25.159052"
     inkscape:document-units="mm"
     inkscape:current-layer="layer1"
     inkscape:document-rotation="0"
     showgrid="false"
     units="px"
     width="64px"
     inkscape:window-width="1431"
     inkscape:window-height="1030"
     inkscape:window-x="64"
     inkscape:window-y="0"
     inkscape:window-maximized="0" />
  <metadata
     id="metadata5">
    <rdf:RDF>
      <cc:Work
         rdf:about="">
        <dc:format>image/svg+xml</dc:format>
        <dc:type
           rdf:resource="http://purl.org/dc/dcmitype/StillImage" />
        <dc:title></dc:title>
      </cc:Work>
    </rdf:RDF>
  </metadata>
  <g
     inkscape:label="Layer 1"
     inkscape:groupmode="layer"
     id="layer1">
    <path
       d="m 6.7968812,11.9355 c 0,0.152802 0.04181,0.288944 0.125427,0.408425 0.08362,0.119484 0.198287,0.222199 0.344015,0.308152 0.145728,0.08595 0.317701,0.151633 0.515918,0.197051 0.198214,0.04542 0.411995,0.06813 0.641342,0.06813 0.253253,0 0.485004,-0.02273 0.695251,-0.06813 0.210243,-0.04542 0.390596,-0.109899 0.541066,-0.193442 0.150466,-0.08355 0.26751,-0.186264 0.3511248,-0.308152 0.08362,-0.121887 0.125425,-0.259232 0.125427,-0.412034 -2e-6,-0.138508 -0.04779,-0.26751 -0.1433588,-0.386993 -0.09557,-0.119482 -0.220998,-0.223405 -0.376273,-0.311758 -0.155283,-0.08835 -0.329664,-0.157609 -0.523138,-0.207769 -0.193478,-0.05015 -0.390528,-0.07523 -0.59115,-0.07523 -0.215056,3e-6 -0.425302,0.02388 -0.630733,0.07163 -0.205436,0.04775 -0.388159,0.114639 -0.548178,0.200659 -0.160014,0.08602 -0.28781,0.189945 -0.383378,0.311761 -0.09558,0.121818 -0.143362,0.254387 -0.143362,0.397707 z m 2.565587,0.372667 c -2e-6,0.152799 -0.08005,0.273413 -0.240134,0.361841 -0.16009,0.08842 -0.361953,0.132645 -0.605584,0.132645 -0.119414,0 -0.235252,-0.03465 -0.347515,-0.103996 -0.11227,-0.06932 -0.212581,-0.157717 -0.300936,-0.265174 -0.08836,-0.107458 -0.158815,-0.228066 -0.211374,-0.361839 -0.05256,-0.133771 -0.07884,-0.265175 -0.07884,-0.394211 0,-0.367854 0.22927,-0.551783 0.687814,-0.551783 0.148133,0 0.28788,0.02984 0.419253,0.08956 0.131362,0.0597 0.247237,0.143325 0.347625,0.250849 0.100389,0.107536 0.180422,0.232955 0.240134,0.376276 0.0597,0.143324 0.08956,0.298605 0.08956,0.465834 z"
       id="path3005"
       inkscape:connector-curvature="0"
       style="font-style:normal;font-variant:normal;font-weight:normal;font-stretch:normal;font-size:20px;line-height:125%;font-family:'Opus Text';-inkscape-font-specification:'Opus Text';letter-spacing:0px;word-spacing:0px;fill:#000000;fill-opacity:1;stroke:none;stroke-width:0.293624" />
  </g>
</svg>
