<?xml version="1.0" encoding="UTF-8" standalone="no"?>
<svg
   xmlns:dc="http://purl.org/dc/elements/1.1/"
   xmlns:cc="http://creativecommons.org/ns#"
   xmlns:rdf="http://www.w3.org/1999/02/22-rdf-syntax-ns#"
   xmlns:svg="http://www.w3.org/2000/svg"
   xmlns="http://www.w3.org/2000/svg"
   xmlns:sodipodi="http://sodipodi.sourceforge.net/DTD/sodipodi-0.dtd"
   xmlns:inkscape="http://www.inkscape.org/namespaces/inkscape"
   width="64"
   height="64"
   viewBox="0 0 16.933333 16.933333"
   version="1.1"
   id="svg8"
   inkscape:version="1.0.1 (3bc2e813f5, 2020-09-07)"
   sodipodi:docname="whole_note.svg">
  <defs
     id="defs2" />
  <sodipodi:namedview
     id="base"
     pagecolor="#ffffff"
     bordercolor="#666666"
     borderopacity="1.0"
     inkscape:pageopacity="0.0"
     inkscape:pageshadow="2"
     inkscape:zoom="7.9195959"
     inkscape:cx="23.250148"
     inkscape:cy="25.159052"
     inkscape:document-units="mm"
     inkscape:current-layer="layer1"
     inkscape:document-rotation="0"
     showgrid="false"
     units="px"
     width="64px"
     inkscape:window-width="1431"
     inkscape:window-height="1030"
     inkscape:window-x="77"
     inkscape:window-y="17"
     inkscape:window-maximized="0" />
  <metadata
     id="metadata5">
    <rdf:RDF>
      <cc:Work
         rdf:about="">
        <dc:format>image/svg+xml</dc:format>
        <dc:type
           rdf:resource="http://purl.org/dc/dcmitype/StillImage" />
        <dc:title></dc:title>
      </cc:Work>
    </rdf:RDF>
  </metadata>
  <g
     inkscape:label="Layer 1"
     inkscape:groupmode="layer"
     id="layer1">
    <path
       d="m 6.1812575,11.933973 c 0,0.205901 0.05634,0.389353 0.169013,0.550354 0.112678,0.161005 0.267192,0.299414 0.463561,0.415236 0.196369,0.115817 0.428103,0.204325 0.695201,0.265526 0.267094,0.0612 0.555165,0.09181 0.864211,0.09181 0.341259,0 0.653544,-0.03063 0.936853,-0.09181 0.283303,-0.0612 0.526329,-0.148089 0.7290875,-0.260663 0.202753,-0.112584 0.360471,-0.250992 0.473142,-0.415236 0.112678,-0.164243 0.169011,-0.349316 0.169013,-0.555217 -2e-6,-0.18664 -0.0644,-0.360471 -0.193176,-0.521475 -0.128781,-0.161002 -0.297796,-0.301039 -0.5070287,-0.420094 -0.2092448,-0.119052 -0.4442238,-0.212379 -0.7049308,-0.27997 -0.260712,-0.06758 -0.526237,-0.101373 -0.796576,-0.101373 -0.289789,4e-6 -0.573096,0.03218 -0.849915,0.09652 -0.276826,0.06434 -0.523045,0.154477 -0.738672,0.270389 -0.215619,0.115912 -0.387824,0.255951 -0.516603,0.420099 -0.128794,0.16415 -0.19318,0.342787 -0.19318,0.535911 z m 3.457136,0.50217 c -2e-6,0.205897 -0.107867,0.368425 -0.323581,0.487582 -0.215722,0.119146 -0.487733,0.178739 -0.816026,0.178739 -0.160911,0 -0.317003,-0.04669 -0.468278,-0.140135 -0.151284,-0.09341 -0.286454,-0.212524 -0.405512,-0.357323 -0.119066,-0.1448 -0.214004,-0.307319 -0.284827,-0.487579 -0.07082,-0.180257 -0.106237,-0.357324 -0.106237,-0.5312 0,-0.495685 0.308942,-0.74353 0.926831,-0.74353 0.19961,0 0.387919,0.04021 0.564945,0.120683 0.177011,0.08045 0.333153,0.193131 0.468426,0.338019 0.135274,0.144906 0.243119,0.313908 0.323581,0.507034 0.08045,0.193129 0.120682,0.402371 0.120682,0.627712 z"
       id="path3005"
       inkscape:connector-curvature="0"
       style="font-style:normal;font-variant:normal;font-weight:normal;font-stretch:normal;font-size:20px;line-height:125%;font-family:'Opus Text';-inkscape-font-specification:'Opus Text';letter-spacing:0px;word-spacing:0px;fill:#000000;fill-opacity:1;stroke:none;stroke-width:0.395659" />
  </g>
</svg>
